<?xml version="1.0" encoding="iso-8859-1"?>
<!-- Uploaded to: SVG Repo, www.svgrepo.com, Generator: SVG Repo Mixer Tools -->
<svg fill="#000000" height="800px" width="800px" version="1.1" id="Layer_1" xmlns="http://www.w3.org/2000/svg" xmlns:xlink="http://www.w3.org/1999/xlink" 
	 viewBox="0 0 296.999 296.999" xml:space="preserve">
<g>
	<g>
		<g>
			<path d="M148.5,171.704c-25.762,0-48.683,31.175-48.683,55.749c0,22.947,21.839,41.617,48.683,41.617s48.683-18.67,48.683-41.617
				C197.183,202.879,174.262,171.704,148.5,171.704z M121.195,197.929c1.05-4.201,5.303-6.754,9.51-5.704l6.851,1.713
				c4.201,1.051,6.755,5.309,5.704,9.51c-0.891,3.562-4.088,5.941-7.601,5.941c-0.63,0-1.269-0.077-1.909-0.236l-6.851-1.713
				C122.698,206.388,120.144,202.13,121.195,197.929z M162.631,256.491h-28.263c-4.33,0-7.842-3.511-7.842-7.842
				c0-4.33,3.511-7.842,7.842-7.842h6.29v-20.421c0-4.33,3.511-7.842,7.842-7.842s7.842,3.511,7.842,7.842v20.421h6.29
				c4.33,0,7.842,3.511,7.842,7.842C170.473,252.98,166.962,256.491,162.631,256.491z M170.101,207.439l-6.851,1.713
				c-0.638,0.16-1.279,0.236-1.909,0.236c-3.514,0-6.71-2.378-7.601-5.941c-1.051-4.201,1.503-8.459,5.704-9.51l6.851-1.713
				c4.202-1.049,8.459,1.503,9.51,5.704C176.856,202.13,174.302,206.388,170.101,207.439z"/>
			<path d="M225.445,135.599c0-19.052-15.5-34.552-34.552-34.552s-34.552,15.5-34.552,34.552c0,4.33-3.511,7.842-7.842,7.842
				s-7.842-3.511-7.842-7.842c0-19.052-15.5-34.552-34.552-34.552s-34.552,15.5-34.552,34.552c0,9.292,4.327,18.242,9.803,29.572
				c3.901,8.07,8.369,17.34,12.141,28.611c2.542-4.661,5.543-9.161,8.967-13.339c12.906-15.749,29.255-24.423,46.035-24.423
				c16.78,0,33.128,8.673,46.035,24.423c3.424,4.179,6.425,8.678,8.967,13.339c3.771-11.271,8.24-20.541,12.141-28.611
				C221.119,153.841,225.445,144.891,225.445,135.599z M111.652,141.145c-1.461,1.46-3.48,2.294-5.548,2.294
				c-2.059,0-4.078-0.834-5.548-2.294c-1.451-1.461-2.294-3.48-2.294-5.548c0-2.059,0.842-4.078,2.294-5.548
				c1.47-1.451,3.489-2.294,5.548-2.294c2.068,0,4.087,0.842,5.548,2.294c1.46,1.47,2.294,3.489,2.294,5.548
				C113.945,137.664,113.112,139.684,111.652,141.145z M196.439,141.145c-1.461,1.46-3.48,2.294-5.548,2.294
				c-2.059,0-4.078-0.834-5.538-2.294c-1.461-1.461-2.303-3.48-2.303-5.548c0-2.059,0.842-4.078,2.303-5.548
				c1.461-1.451,3.48-2.294,5.538-2.294c2.068,0,4.087,0.842,5.548,2.294c1.46,1.47,2.294,3.489,2.294,5.548
				C198.732,137.664,197.898,139.684,196.439,141.145z"/>
			<path d="M286.328,118.57c-6.972-7.006-16.257-10.864-26.142-10.864c-0.344,0-0.689,0.005-1.037,0.015
				c-7.372-22.119-21.537-41.926-40.204-56.105c-20.4-15.497-44.76-23.688-70.445-23.688s-50.045,8.191-70.447,23.688
				C59.385,65.794,45.22,85.602,37.849,107.721c-0.347-0.011-0.693-0.015-1.037-0.015c-9.885,0-19.169,3.858-26.142,10.864
				C3.744,125.528-0.046,134.75,0,144.54c0.177,37.259,32.537,68.699,52.768,68.699c0.503,0,1-0.026,1.493-0.078
				c8.748,11.974,19.873,22.338,32.417,30.206c-1.645-5.057-2.545-10.392-2.545-15.915c0.001-1.673,0.233-3.74,0.176-5.464
				c-0.715-21.811-10.712-36.834-17.072-49.99c-6.098-12.618-11.366-23.515-11.366-36.398c0-27.7,22.535-50.235,50.235-50.235
				c17.8,0,33.468,9.306,42.393,23.309c8.925-14.003,24.593-23.309,42.393-23.309c27.7,0,50.235,22.535,50.235,50.235
				c0,12.883-5.268,23.78-11.366,36.398c-6.36,13.156-16.356,28.181-17.072,49.992c-0.057,1.723,0.176,3.79,0.176,5.463
				c0,5.523-0.9,10.86-2.546,15.917c12.543-7.869,23.671-18.235,32.418-30.208c0.493,0.052,0.991,0.078,1.493,0.078
				c20.231,0,52.592-31.44,52.768-68.699C297.044,134.751,293.254,125.529,286.328,118.57z"/>
		</g>
	</g>
</g>
</svg>